<?xml version="1.0" standalone="no"?>
<!DOCTYPE svg PUBLIC "-//W3C//DTD SVG 20010904//EN"
 "http://www.w3.org/TR/2001/REC-SVG-20010904/DTD/svg10.dtd">
<svg version="1.0" xmlns="http://www.w3.org/2000/svg"
 width="152.000000pt" height="152.000000pt" viewBox="0 0 152.000000 152.000000"
 preserveAspectRatio="xMidYMid meet">
<metadata>
Created by potrace 1.11, written by Peter Selinger 2001-2013
</metadata>
<g transform="translate(0.000000,152.000000) scale(0.100000,-0.100000)"
fill="#000000" stroke="none">
<path d="M782 1417 c-6 -7 -16 -26 -23 -42 -11 -27 -13 -28 -16 -8 -4 19 -10
16 -59 -34 -44 -43 -58 -52 -69 -43 -23 19 -116 -31 -145 -79 -22 -36 -30 -40
-63 -41 -31 0 -39 -4 -48 -26 -5 -15 -8 -29 -5 -31 2 -3 -3 -13 -12 -23 -34
-37 -40 -47 -47 -81 -13 -58 -13 -92 -1 -105 8 -7 12 -36 11 -70 -1 -33 2 -66
6 -75 6 -11 0 -27 -16 -49 -13 -18 -22 -37 -20 -41 3 -4 1 -10 -5 -14 -6 -4
-8 -10 -6 -14 3 -4 8 -23 11 -42 10 -62 26 -107 49 -137 5 -8 11 -36 13 -64 1
-28 11 -69 22 -92 42 -87 158 -177 271 -212 14 -4 32 -10 40 -12 53 -16 250 8
250 30 0 4 7 8 16 8 26 0 121 68 169 122 48 54 65 97 65 171 0 35 4 47 15 47
8 0 15 8 15 18 0 10 3 22 7 26 16 15 29 83 26 131 -3 69 -5 73 -19 79 -9 4
-11 17 -7 43 3 21 6 61 7 90 1 43 3 50 17 43 13 -7 15 -3 13 23 -1 18 -3 32
-4 32 -1 0 -3 16 -4 35 -3 39 -20 85 -35 94 -5 4 -9 20 -9 37 1 37 -15 57 -34
41 -10 -8 -19 -3 -37 23 -12 19 -34 41 -48 51 -25 16 -26 16 -20 -5 7 -30 -2
-26 -42 17 -70 72 -91 88 -101 72 -7 -12 -12 -10 -28 10 -36 45 -59 70 -66 70
-3 0 -4 -15 -2 -32 l5 -33 -13 30 c-8 16 -12 40 -10 52 5 26 1 29 -14 10z"/>
</g>
</svg>
