<?xml version="1.0" standalone="no"?>
<!DOCTYPE svg PUBLIC "-//W3C//DTD SVG 20010904//EN"
 "http://www.w3.org/TR/2001/REC-SVG-20010904/DTD/svg10.dtd">
<svg version="1.0" xmlns="http://www.w3.org/2000/svg"
 width="600.000000pt" height="600.000000pt" viewBox="0 0 600.000000 600.000000"
 preserveAspectRatio="xMidYMid meet">
<metadata>
Created by potrace 1.11, written by Peter Selinger 2001-2013
</metadata>
<g transform="translate(0.000000,600.000000) scale(0.100000,-0.100000)"
fill="#000000" stroke="none">
<path d="M3088 5627 c-15 -28 -53 -105 -85 -169 -32 -65 -63 -118 -70 -118 -7
0 -12 15 -12 38 0 20 -2 46 -5 57 -2 11 -5 24 -5 28 -1 4 -18 -9 -40 -30 -21
-21 -75 -72 -121 -113 -45 -41 -92 -84 -104 -95 -12 -11 -49 -42 -81 -70 -32
-27 -76 -65 -97 -84 -21 -19 -40 -32 -43 -30 -2 2 7 25 19 51 24 50 24 63 -3
49 -9 -5 -29 -11 -46 -14 -162 -30 -367 -132 -470 -235 -55 -54 -85 -90 -85
-100 0 -6 -3 -12 -7 -14 -8 -3 -65 -105 -63 -110 1 -2 -2 -11 -6 -22 -6 -17
-18 -18 -143 -16 -75 2 -141 2 -147 1 -26 -3 -84 -154 -84 -221 0 -44 -4 -52
-53 -102 -84 -86 -150 -194 -173 -283 -22 -88 -44 -201 -40 -212 3 -7 2 -13
-2 -13 -4 0 -8 -19 -9 -42 -1 -24 -4 -70 -7 -102 -7 -71 3 -86 53 -86 l36 0
-2 -227 c-1 -126 3 -253 8 -283 8 -49 21 -146 21 -160 1 -30 -8 -42 -42 -61
-42 -24 -80 -73 -80 -103 0 -9 -4 -16 -8 -16 -5 0 -9 -6 -9 -12 0 -7 -8 -51
-18 -97 -15 -72 -16 -95 -5 -179 13 -103 16 -124 24 -150 3 -9 8 -30 10 -47
17 -96 126 -375 147 -375 5 0 9 -5 9 -11 0 -6 16 -27 35 -47 19 -20 35 -46 35
-57 3 -314 20 -420 90 -560 51 -101 108 -178 212 -283 84 -86 259 -232 276
-232 6 0 12 -4 14 -8 3 -9 125 -92 135 -92 3 0 25 -13 50 -30 24 -16 48 -30
54 -30 5 0 26 -10 47 -23 33 -20 117 -61 132 -63 3 0 16 -5 30 -11 118 -48
274 -95 360 -107 68 -10 205 -27 235 -28 19 -2 200 14 205 17 3 1 25 6 50 9
136 18 331 81 473 152 37 19 67 31 67 27 0 -5 4 -3 8 3 4 6 27 22 52 34 95 48
240 146 375 251 53 42 209 202 256 264 61 79 102 155 132 240 40 113 41 120
51 383 5 102 5 105 38 137 52 53 97 136 139 258 22 61 41 121 44 132 34 156
42 214 43 315 1 166 -23 251 -91 320 -36 38 -37 43 -23 150 2 19 7 62 10 95 4
33 9 78 11 100 3 22 7 114 11 205 3 91 8 167 11 170 6 6 39 -37 59 -77 9 -18
20 -31 24 -28 13 8 3 360 -14 480 -15 108 -84 277 -136 333 -26 28 -42 61 -34
74 15 24 10 105 -9 153 -19 45 -68 121 -90 136 -5 4 -29 -16 -54 -42 -25 -27
-48 -49 -52 -49 -3 0 -21 28 -40 63 -44 80 -82 131 -145 190 -51 49 -184 121
-211 115 -15 -3 -14 -8 37 -110 10 -21 14 -38 9 -38 -5 0 -74 64 -153 143
-123 123 -172 169 -293 269 -116 97 -125 98 -125 21 0 -24 -4 -43 -10 -43 -5
0 -10 3 -10 8 0 4 -26 34 -58 68 -31 33 -82 89 -112 124 -30 35 -64 74 -75 86
-11 12 -38 43 -60 68 -40 46 -57 57 -54 34 5 -44 -3 -218 -10 -218 -14 0 -32
90 -45 234 -8 82 -23 146 -34 146 -4 0 -19 -24 -34 -53z"/>
</g>
</svg>
